<?xml version="1.0" encoding="utf-8"?>
<!-- Generator: Adobe Illustrator 26.2.1, SVG Export Plug-In . SVG Version: 6.00 Build 0)  -->
<svg version="1.1" id="Calque_1" xmlns="http://www.w3.org/2000/svg" xmlns:xlink="http://www.w3.org/1999/xlink" x="0px" y="0px"
	 viewBox="0 0 300 300" style="enable-background:new 0 0 300 300;" xml:space="preserve">
<style type="text/css">
	.st0{fill:#F94E4E;}
</style>
<circle class="st0" cx="151.5" cy="150.5" r="131.5"/>
<g>
	<g>
		<path d="M6.36,243.94c-1.25,2.83-2.5,5.66-3.75,8.5c4.97,2.09,9.93,4.19,14.9,6.28c8.64-62.68,32.09-122.5,68.51-174.25
			c-4.97-2.09-9.93-4.19-14.9-6.28c-5.21,27.13-10.4,54.69-7.98,82.43c0.65,7.44,11.13,11.86,15.19,4.11
			c9.55-18.22,18.92-36.56,28.74-54.64c9.01-16.6,18.82-32.81,31.87-46.57c-4.54-2.64-9.08-5.29-13.62-7.93
			c-21.46,67.46-38.14,136.37-49.9,206.17c-1.71,10.13,13.11,14.7,15.72,4.33c0.93-3.68,1.86-7.36,2.78-11.04
			c2.56-10.18-13.15-14.52-15.72-4.33c-0.93,3.68-1.86,7.36-2.78,11.04c5.24,1.44,10.48,2.89,15.72,4.33
			c11.76-69.8,28.44-138.72,49.9-206.17c2.47-7.76-8.1-13.76-13.62-7.93c-13.59,14.33-24.14,31.06-33.58,48.32
			c-10.15,18.57-19.76,37.44-29.58,56.18c5.06,1.37,10.13,2.74,15.19,4.11c-2.3-26.37,2.44-52.31,7.4-78.1
			c1.77-9.2-9.51-13.94-14.9-6.28C34.84,128.96,10.6,190.52,1.79,254.39c-0.55,4.03,0.63,7.97,4.72,9.62
			c3.41,1.37,8.52,0.43,10.18-3.34c1.25-2.83,2.5-5.66,3.75-8.5c1.77-4.03,1.18-8.75-2.92-11.15
			C14.05,238.99,8.15,239.89,6.36,243.94L6.36,243.94z"/>
	</g>
</g>
<g>
	<g>
		<path d="M131.39,158.4c3.96-7.98,7.47-16.17,10.56-24.53c-5.24-1.44-10.48-2.89-15.72-4.33c-6.24,25.68-10.21,51.88-11.94,78.25
			c5.43,0,10.87,0,16.3,0c0.14-2.9,0.28-5.8,0.42-8.7c0.51-10.49-15.8-10.46-16.3,0c-0.14,2.9-0.28,5.8-0.42,8.7
			c-0.51,10.52,15.62,10.41,16.3,0c1.63-24.95,5.45-49.62,11.35-73.92c2.51-10.34-12.12-14.06-15.72-4.33
			c-2.61,7.05-5.58,13.9-8.92,20.64C112.67,159.54,126.73,167.81,131.39,158.4L131.39,158.4z"/>
	</g>
</g>
<g>
	<g>
		<path d="M158.08,128.47c-4.75,24.05-8.88,48.22-12.37,72.49c5.24,1.44,10.48,2.89,15.72,4.33c3.61-26.05,7.16-52.84,18.03-77.04
			c-5.06-1.37-10.13-2.74-15.19-4.11c0.9,17.43,2.68,34.8,5.29,52.06c1.65,10.94,3.21,38.67,21.46,32.05
			c7.47-2.71,9.76-11.65,12.17-18.34c2.73-7.57,5.17-15.24,7.31-22.99c4.49-16.24,7.54-32.78,9.54-49.5
			c0.52-4.38-4.12-8.15-8.15-8.15c-4.84,0-7.63,3.76-8.15,8.15c-1.64,13.72-4.27,27.32-7.75,40.69c-1.72,6.59-3.65,13.12-5.79,19.58
			c-1.07,3.23-2.19,6.44-3.37,9.64c-0.57,1.55-1.68,3.59-1.97,5.21c-0.18,1.01-1.17,0.73-0.41,0.61c1.44,0,2.89,0,4.33,0
			c1.48,0.21,0.41,1.3,0.42,0.37c0.01-0.71-0.51-1.86-0.68-2.63c-0.7-3.13-1.18-6.33-1.72-9.49c-1.07-6.25-2.03-12.53-2.84-18.82
			c-1.63-12.76-2.74-25.58-3.4-38.43c-0.38-7.32-11.63-12.05-15.19-4.11c-11.54,25.71-15.84,53.23-19.68,80.94
			c-0.6,4.36,1.06,8.75,5.69,10.03c3.83,1.05,9.4-1.31,10.03-5.69c3.5-24.27,7.62-48.44,12.37-72.49
			C175.82,122.56,160.11,118.17,158.08,128.47L158.08,128.47z"/>
	</g>
</g>
<g>
	<g>
		<path d="M239.11,91.49c-11.89,48.61-18.69,98.43-20.29,148.45c-0.33,10.5,15.94,10.48,16.3,0c0.12-3.5,0.24-7,0.36-10.5
			c0.36-10.49-15.94-10.48-16.3,0c-0.12,3.5-0.24,7-0.36,10.5c5.43,0,10.87,0,16.3,0c1.55-48.62,8.15-96.87,19.7-144.12
			C257.33,85.63,241.61,81.29,239.11,91.49L239.11,91.49z"/>
	</g>
</g>
<g>
	<g>
		<path d="M197.15,71.81c-2.9-0.14-5.79-0.29-8.69-0.43c0.72,5.34,1.44,10.67,2.17,16.01c32.89-4.54,66.24-5.57,99.37-3.47
			c10.48,0.66,10.44-15.64,0-16.3c-34.67-2.2-69.3-0.7-103.7,4.05c-9.48,1.31-6.54,15.58,2.17,16.01c2.9,0.14,5.79,0.29,8.69,0.43
			C207.64,88.63,207.61,72.32,197.15,71.81L197.15,71.81z"/>
	</g>
</g>
<g>
	<g>
		<path d="M155.49,33.83c-6.93,17.2-12.15,34.96-15.63,53.17c-1.96,10.25,13.75,14.64,15.72,4.33c3.49-18.21,8.71-35.97,15.63-53.17
			c1.65-4.09-1.79-8.96-5.69-10.03C160.86,26.86,157.14,29.73,155.49,33.83L155.49,33.83z"/>
	</g>
</g>
</svg>
