<?xml version="1.0" standalone="no"?>
<!DOCTYPE svg PUBLIC "-//W3C//DTD SVG 20010904//EN"
 "http://www.w3.org/TR/2001/REC-SVG-20010904/DTD/svg10.dtd">
<svg version="1.0" xmlns="http://www.w3.org/2000/svg"
 width="1141.000000pt" height="1141.000000pt" viewBox="0 0 1141.000000 1141.000000"
 preserveAspectRatio="xMidYMid meet">
<metadata>
Created by potrace 1.14, written by Peter Selinger 2001-2017
</metadata>
<g transform="translate(0.000000,1141.000000) scale(0.100000,-0.100000)"
fill="#000000" stroke="none">
<path d="M3306 11393 c2 -10 13 -57 24 -106 11 -48 46 -156 79 -240 59 -153
137 -384 172 -510 11 -38 44 -129 75 -204 90 -222 109 -312 109 -523 0 -125
-8 -210 -25 -269 -5 -17 -9 -35 -9 -39 -1 -8 -20 -70 -28 -92 -3 -8 -7 -22 -9
-30 -12 -57 -124 -286 -148 -302 -6 -4 -7 -8 -3 -8 5 0 -4 -17 -20 -37 -34
-45 -102 -147 -121 -183 -12 -21 -87 -125 -102 -140 -18 -17 -60 -80 -60 -89
0 -6 -3 -11 -8 -11 -4 0 -16 -16 -26 -35 -10 -19 -26 -42 -35 -52 -9 -10 -28
-34 -42 -53 -32 -43 -163 -180 -172 -180 -8 0 -13 -5 -171 -159 -69 -68 -126
-126 -126 -128 0 -2 -6 -10 -12 -17 -7 -7 -29 -32 -48 -56 -19 -24 -69 -77
-110 -119 -75 -76 -123 -130 -170 -193 -24 -31 -87 -103 -140 -159 -14 -14
-43 -48 -65 -75 -176 -214 -200 -244 -230 -288 -80 -118 -169 -266 -236 -391
-29 -55 -58 -103 -63 -107 -6 -4 -7 -8 -2 -8 5 0 2 -8 -6 -17 -25 -28 -71
-127 -120 -258 -76 -198 -95 -264 -97 -338 -1 -10 -4 -16 -8 -14 -5 3 -9 -20
-9 -51 -1 -32 -5 -86 -9 -122 -15 -118 -9 -390 10 -485 4 -16 7 -38 8 -47 1
-10 4 -18 7 -18 6 0 8 -16 13 -80 1 -16 6 -30 10 -30 5 0 6 -4 2 -9 -3 -5 -1
-12 4 -16 5 -3 8 -14 6 -25 -2 -11 -1 -20 3 -20 4 0 8 -10 10 -22 1 -13 12
-54 26 -93 13 -38 21 -74 18 -80 -4 -5 -7 -14 -8 -20 -1 -5 -11 -43 -22 -82
-12 -40 -18 -73 -14 -73 4 0 1 -4 -5 -8 -7 -4 -14 -17 -16 -27 -1 -11 -6 -26
-10 -33 -5 -6 -6 -16 -3 -21 3 -4 -1 -17 -8 -27 -11 -15 -12 -22 -3 -33 9 -11
9 -13 1 -8 -11 6 -20 -12 -29 -53 -2 -8 -17 -52 -33 -98 -29 -78 -47 -144 -57
-202 -7 -41 -52 -198 -90 -315 -20 -61 -38 -117 -41 -125 -2 -8 -15 -51 -28
-95 -13 -44 -27 -96 -30 -115 -3 -19 -8 -46 -11 -60 -3 -14 -7 -40 -10 -59 -2
-18 -7 -41 -9 -50 -3 -9 -8 -36 -11 -61 -9 -63 -43 -257 -65 -370 -10 -52 -21
-113 -25 -135 -3 -23 -7 -50 -9 -60 -7 -35 -15 -108 -21 -190 -3 -44 -8 -98
-10 -120 -6 -54 -21 -290 -30 -490 -3 -60 -8 -135 -11 -165 -4 -30 -7 -80 -9
-110 -3 -76 -16 -240 -20 -270 -2 -14 -7 -74 -10 -135 -4 -60 -8 -135 -10
-165 -2 -40 -17 -669 -18 -745 0 -23 14 -214 20 -265 3 -30 6 -61 6 -67 0 -10
314 -13 1534 -13 l1534 0 49 103 c65 140 163 366 277 642 52 127 103 248 112
270 10 22 25 60 35 85 10 25 22 53 27 62 5 10 9 25 9 33 0 8 4 15 8 15 5 0 9
6 9 13 0 6 12 37 26 67 38 84 90 211 87 218 0 1 7 17 17 35 9 17 18 34 18 37
1 3 5 14 10 25 47 122 63 163 92 245 19 52 36 102 38 110 2 8 12 40 23 70 10
30 27 80 37 110 10 30 23 66 28 80 6 14 11 27 12 30 1 3 23 70 49 150 26 80
49 153 52 164 2 10 11 44 20 75 9 31 17 63 19 71 2 8 17 58 34 110 28 90 78
276 88 330 2 14 9 43 15 65 13 51 18 74 23 106 2 14 13 75 25 135 11 60 23
165 27 234 3 69 7 132 8 140 2 8 4 17 4 20 1 3 34 -10 75 -30 69 -32 76 -39
91 -80 19 -51 57 -150 90 -230 70 -169 153 -392 215 -580 17 -52 60 -162 95
-245 35 -82 89 -211 120 -285 32 -74 66 -155 77 -180 39 -87 187 -386 228
-460 23 -41 102 -194 176 -340 179 -355 291 -563 364 -680 5 -8 54 -91 108
-185 55 -93 149 -252 211 -353 61 -101 111 -188 111 -193 0 -5 640 -9 1644 -9
l1644 0 -6 42 c-7 48 -7 44 -4 247 1 79 4 142 6 140 2 -2 7 -24 10 -49 3 -25
8 -54 10 -65 2 -12 8 -48 12 -80 4 -33 9 -62 9 -65 1 -3 5 -25 9 -50 4 -25 9
-54 11 -65 2 -11 4 -28 4 -37 1 -16 12 -18 82 -18 l80 0 -5 48 c-14 115 -22
171 -36 272 -11 73 -15 100 -24 150 -3 14 -7 45 -10 70 -3 25 -8 56 -11 70 -4
14 -8 45 -10 70 -1 25 -5 52 -8 60 -3 8 -9 33 -12 55 -12 83 -15 101 -20 130
-3 17 -7 44 -10 60 -3 17 -19 107 -36 200 -17 94 -36 202 -44 240 -8 39 -16
84 -19 100 -3 17 -8 41 -11 55 -3 14 -8 41 -11 60 -8 40 -5 30 -38 182 -13 65
-27 126 -30 135 -3 10 -8 34 -11 53 -3 19 -10 51 -15 70 -5 19 -12 47 -15 63
-3 15 -7 39 -10 55 -3 15 -8 36 -10 47 -14 62 -26 123 -30 145 -2 14 -6 36 -9
50 -3 14 -9 41 -12 60 -4 19 -8 42 -10 50 -28 125 -35 160 -40 185 -5 31 -16
81 -54 240 -12 50 -29 119 -37 155 -8 36 -19 83 -24 105 -5 22 -12 51 -14 63
-3 13 -13 49 -21 80 -9 32 -18 68 -21 82 -3 14 -16 68 -30 120 -14 52 -27 102
-29 110 -2 8 -10 40 -19 70 -9 30 -17 60 -18 65 -2 6 -6 16 -10 23 -5 6 -6 12
-3 12 3 0 -22 80 -56 177 -33 98 -107 313 -163 478 -106 311 -120 350 -141
400 -6 17 -15 41 -19 55 -4 14 -13 39 -20 55 -7 17 -22 55 -34 85 -29 73 -36
90 -49 120 -42 95 -62 144 -62 151 0 5 -12 34 -26 66 -15 32 -32 72 -39 88 -7
17 -26 59 -43 95 -16 36 -48 110 -72 165 -41 96 -64 149 -116 263 -13 29 -24
55 -24 58 0 7 -34 82 -100 219 -65 136 -82 175 -100 225 -7 19 -21 54 -31 77
-11 24 -19 45 -19 48 0 3 -8 24 -19 48 -10 23 -33 82 -51 131 -26 70 -30 92
-22 110 13 25 19 87 27 261 3 72 8 177 10 235 3 58 7 115 9 128 5 22 12 207
21 505 2 87 8 144 16 153 9 11 9 14 0 14 -7 0 -10 4 -7 9 10 15 19 200 20 396
1 187 1 191 -23 223 -14 17 -30 32 -37 32 -14 0 -20 16 -29 75 -3 22 -8 53
-11 69 -3 16 -6 48 -8 70 -2 23 -7 48 -10 56 -3 8 -7 29 -10 45 -2 17 -5 30
-6 30 0 0 -11 39 -24 88 -12 48 -18 87 -13 87 5 0 5 6 -1 13 -6 6 -13 32 -17
57 -4 24 -8 47 -10 51 -2 3 -7 19 -9 35 -3 16 -8 40 -12 54 -9 42 -12 440 -3
515 8 67 11 85 25 150 4 17 8 39 10 50 7 55 26 160 45 250 11 55 22 114 25
130 2 17 6 39 8 50 4 18 9 64 22 200 3 28 7 66 9 85 2 19 7 93 10 164 3 71 7
134 8 140 3 17 -114 20 -124 4 -7 -10 -9 -10 -9 0 0 9 -531 12 -2619 12 -2489
0 -2619 -1 -2615 -17z m2117 -1748 c-3 -9 -8 -14 -10 -11 -3 3 -2 9 2 15 9 16
15 13 8 -4z m793 -7675 c9 -25 21 -51 27 -57 5 -7 6 -13 1 -13 -5 0 -25 31
-44 69 -26 49 -31 65 -19 58 10 -6 25 -32 35 -57z"/>
</g>
</svg>
