<?xml version="1.0" encoding="utf-8"?>
<svg viewBox="392.22 62.94 259.14 117.465" width="259.14" height="117.465" xmlns="http://www.w3.org/2000/svg">
  <defs>
    <style type="text/css">
	.st0{fill:#F39200;}
	.st1{fill:#FFFFFF;}
</style>
  </defs>
  <g>
    <path d="M649.57,157.72c-2.15-0.37-4.33-0.65-6.51-0.73c-3.26-0.12-6.54-0.02-9.81-0.04c-4.07-0.03-8.14-0.1-12.21-0.12 c-2.64-0.02-5.27,0-7.91,0.01c-3.99,0.01-7.98,0.02-11.97,0.04c-2.63,0-5.26,0.03-7.89,0.02c-3.31-0.02-6.62-0.1-9.93-0.09 c-3.07,0.01-6.14,0.12-9.2,0.15c-3.48,0.03-6.95,0.01-10.42,0.04c-2.64,0.03-5.27,0.14-7.91,0.15c-1.81,0.01-2.63-0.52-2.95-1.86 c-1.08-4.49-2.68-8.69-5.36-12.57c-3.21-4.65-7.31-8.26-11.93-11.27c-4.03-2.64-8.71-3.74-13.43-4.5 c-4.96-0.8-9.89-1.94-14.97-1.65c-2.63,0.16-5.28,0.09-7.87,0.47c-2.23,0.32-4.45,0.97-6.56,1.78c-2.52,0.98-4.93,2.24-7.35,3.46 c-4.09,2.06-7.81,4.67-11.01,7.95c-3.6,3.7-6.84,7.69-9.68,12.01c-2.24,3.4-3.42,7.08-3.38,11.15c0.02,1.72-0.65,2.49-2.38,2.68 c-2.02,0.24-4.05,0.4-6.06,0.73c-3.9,0.62-7.78,1.32-11.66,2.01c-4.05,0.72-8.1,1.42-12.13,2.22c-3.09,0.62-6.15,1.38-9.23,2.06 c-4.4,0.96-8.81,1.87-13.2,2.87c-2.96,0.67-5.91,1.38-8.82,2.21c-1.74,0.5-3.69,0.56-5.04,2.01c-0.31,0.33-0.39,0.87-0.58,1.32 c0.44,0.06,0.9,0.24,1.32,0.15c5.28-1.08,10.58-2.06,15.82-3.33c13.34-3.25,26.92-4.99,40.52-6.65c8.88-1.08,17.78-2.02,26.68-2.95 c9.42-0.99,18.83-2.07,28.26-2.8c7.56-0.58,15.16-0.73,22.74-1.01c4.07-0.15,8.14-0.21,12.21-0.26c7.02-0.08,14.04-0.11,21.06-0.18 c3.63-0.04,7.26-0.13,10.88-0.18c2.84-0.04,5.67-0.06,8.5-0.09c3.31-0.04,6.61-0.12,9.92-0.12c3.11,0,6.21,0.14,9.32,0.13 c3.11-0.02,6.21-0.14,9.31-0.21c0.48-0.01,0.96,0.09,1.44,0.1c1.11,0.01,2.23,0,3.34,0c0.96-0.01,1.91-0.04,2.87-0.02 c3.15,0.04,6.29,0.14,9.44,0.14c3.06,0,6.13-0.18,9.19-0.15c3.31,0.04,6.62,0.23,10.64,0.38c0.76-0.13,2.23-0.32,3.66-0.64 c1.04-0.24,2.02-1.65,2.02-2.71C651.35,158.63,650.58,157.89,649.57,157.72z M545.61,157.35c-0.97,0.17-1.98,0.12-2.98,0.18v-0.13 c-3.07,0.15-6.13,0.32-9.2,0.47c-2.19,0.1-4.38,0.19-6.58,0.28c-4.38,0.19-8.77,0.31-13.15,0.59c-4.18,0.27-8.34,0.69-12.51,1.08 c-5.28,0.49-10.56,0.96-15.84,1.53c-4.08,0.43-8.15,1-12.23,1.49c-1.51,0.18-3.02,0.34-4.53,0.41c-1.45,0.06-2.35-0.79-2.4-2.25 c-0.07-2.41,0.85-4.59,2.16-6.49c2.18-3.14,4.49-6.2,6.94-9.13c2.98-3.58,6.47-6.66,10.64-8.79c3.45-1.76,6.98-3.35,10.54-4.86 c1.33-0.57,2.84-0.8,4.3-0.99c1.82-0.24,3.66-0.4,5.49-0.4c6.59-0.01,13.05,0.93,19.37,2.81c1.38,0.41,2.77,0.78,4.14,1.22 c3.02,0.95,5.23,3.12,7.61,5.07c3.17,2.59,5.72,5.7,7.58,9.32c0.97,1.9,1.65,3.97,2.31,6.01 C547.74,156.23,547.15,157.08,545.61,157.35z"/>
    <path d="M635.36,116.24c-1.34,0.86-2.59,1.9-4.03,2.55c-2.79,1.26-5.68,2.31-8.54,3.43c-4.12,1.61-8.25,3.17-12.36,4.81 c-5.59,2.24-11.18,4.46-16.71,6.84c-4.54,1.95-9.02,4.07-13.48,6.21c-4.35,2.09-8.63,4.3-12.95,6.46 c-0.29,0.14-0.58,0.37-0.87,0.38c-0.52,0.02-1.27,0.08-1.5-0.22c-0.29-0.36-0.39-1.28-0.14-1.59c0.97-1.14,1.96-2.4,3.22-3.12 c5.02-2.86,10.08-5.64,15.24-8.24c4.56-2.29,9.21-4.41,13.91-6.39c4.88-2.06,9.85-3.92,14.82-5.74c3.48-1.27,6.99-2.49,10.57-3.45 c3.48-0.93,6.91-2.29,10.65-1.95c0.69,0.06,1.41-0.15,2.11-0.24C635.33,116.07,635.35,116.15,635.36,116.24z"/>
    <path d="M486.94,119.8c-0.09,0.95-0.57,1.43-1.37,1.14c-0.77-0.28-1.6-0.67-2.14-1.25c-2.38-2.57-4.75-5.17-6.98-7.88 c-2.66-3.23-5.15-6.6-7.78-9.87c-2.87-3.57-5.71-7.19-8.75-10.62c-4.29-4.83-8.76-9.5-13.14-14.26c-0.51-0.55-1.04-1.16-1.3-1.84 c-0.2-0.51-0.19-1.33,0.11-1.74c0.25-0.34,1.05-0.37,1.6-0.36c0.35,0.01,0.75,0.29,1.04,0.55c2.81,2.49,5.7,4.89,8.36,7.52 c3.65,3.62,7.26,7.3,10.63,11.18c3.04,3.48,5.78,7.23,8.59,10.91c2.54,3.33,5.02,6.71,7.45,10.12c1.24,1.75,2.3,3.63,3.41,5.46 C486.85,119.17,486.87,119.55,486.94,119.8z"/>
    <path d="M527.78,114.4c0.39-1.52,0.78-3.19,1.24-4.84c1.55-5.62,2.99-11.28,4.72-16.84c1.52-4.88,3.31-9.67,5.1-14.46 c1.16-3.09,2.5-6.12,3.83-9.15c0.72-1.64,1.58-3.22,2.39-4.82c0.12-0.25,0.24-0.54,0.45-0.7c0.36-0.27,0.78-0.44,1.18-0.65 c0.09,0.44,0.35,0.92,0.25,1.3c-1.1,3.83-2.22,7.66-3.41,11.47c-2.04,6.51-4.23,12.98-6.17,19.52c-1.83,6.16-3.4,12.4-5.11,18.6 c-0.18,0.65-0.45,1.28-0.78,1.87c-0.49,0.89-1.27,1.36-2.3,1.01C528.15,116.37,527.78,115.57,527.78,114.4z"/>
    <path d="M446.68,153.86c-0.92-0.31-2.15-0.67-3.34-1.11c-7.4-2.77-14.86-5.41-22.18-8.37c-5.21-2.11-10.28-4.57-15.32-7.06 c-2.71-1.34-5.25-3.01-7.81-4.64c-0.55-0.35-0.82-1.13-1.21-1.72c0.63,0.01,1.34-0.16,1.89,0.05c4.01,1.55,8,3.17,11.99,4.8 c4.14,1.69,8.23,3.51,12.41,5.08c7.85,2.94,15.76,5.74,23.63,8.62c0.55,0.2,1.08,0.53,1.55,0.88c0.73,0.54,1.14,1.27,0.77,2.19 C448.7,153.47,447.98,153.9,446.68,153.86z"/>
    <path d="M465.81,139.97c-0.57-0.24-1.75-0.55-2.74-1.17c-2.76-1.74-5.46-3.58-8.16-5.43c-0.58-0.4-1.21-0.9-1.5-1.5 c-0.3-0.61-0.51-1.62-0.2-2.07c0.35-0.51,1.34-0.86,2.01-0.8c0.87,0.07,1.8,0.47,2.53,0.98c3.1,2.17,6.14,4.42,9.17,6.67 c0.39,0.29,0.7,0.78,0.89,1.24C468.33,139.08,467.7,139.96,465.81,139.97z"/>
    <path d="M500.11,101.52c0.1-0.83,0.09-1.41,0.27-1.93c0.12-0.37,0.46-0.86,0.76-0.91c0.3-0.05,0.84,0.3,1.01,0.62 c0.61,1.16,1.28,2.34,1.61,3.6c0.64,2.46,1.12,4.98,1.54,7.49c0.13,0.79,0.05,1.74-0.29,2.44c-0.28,0.58-1.07,1.21-1.66,1.24 c-0.49,0.02-1.17-0.71-1.5-1.26c-0.37-0.63-0.52-1.43-0.62-2.17C500.81,107.52,500.45,104.39,500.11,101.52z"/>
    <path d="M550.11,127.5c-1.39,0.02-1.94-0.74-1.53-1.74c0.16-0.4,0.36-0.84,0.67-1.12c2.4-2.19,4.81-4.38,7.28-6.49 c0.72-0.61,1.82-1.16,2.57-0.26c0.74,0.89-0.13,1.73-0.77,2.35c-2.28,2.22-4.58,4.41-6.92,6.57 C550.99,127.2,550.38,127.36,550.11,127.5z"/>
  </g>
</svg>