<?xml version="1.0" encoding="utf-8"?>
<svg viewBox="564.567 200 325.391 292.539" width="325.391" height="292.539" xmlns="http://www.w3.org/2000/svg">
  <g transform="matrix(1, 0, 0, 1, 564.5672, 200)">
    <title>Page 1</title>
    <defs>
      <clipPath id="clippath0" transform="">
        <path d="M 0 292.539 L 325.391 292.539 L 325.391 0 L 0 0 Z" style="fill: none; clip-rule: nonzero;"/>
      </clipPath>
    </defs>
    <g transform="matrix(1 0 0 -1 0 292.539)">
      <g transform="">
        <path d="M 0 292.539 L 325.391 292.539 L 325.391 0 L 0 0 Z" style="fill: none;"/>
      </g>
      <g style="clip-path: url(#clippath0);">
        <g transform="translate(192.1536 173.7191)">
          <path d="M 0 0 C -0.97 -0.17 -1.98 -0.12 -2.98 -0.18 L -2.98 -0.05 C -6.05 -0.2 -9.11 -0.37 -12.18 -0.52 C -14.37 -0.62 -16.56 -0.71 -18.76 -0.8 C -23.14 -0.99 -27.53 -1.11 -31.91 -1.39 C -36.09 -1.66 -40.25 -2.08 -44.42 -2.47 C -49.7 -2.96 -54.98 -3.43 -60.26 -4 C -64.34 -4.43 -68.41 -5 -72.49 -5.49 C -74 -5.67 -75.51 -5.83 -77.02 -5.9 C -78.47 -5.96 -79.37 -5.11 -79.42 -3.65 C -79.49 -1.24 -78.57 0.94 -77.26 2.84 C -75.08 5.98 -72.77 9.04 -70.32 11.97 C -67.34 15.55 -63.85 18.63 -59.68 20.76 C -56.23 22.52 -52.7 24.11 -49.14 25.62 C -47.81 26.19 -46.3 26.42 -44.84 26.61 C -43.02 26.85 -41.18 27.01 -39.35 27.01 C -32.76 27.02 -26.3 26.08 -19.98 24.2 C -18.6 23.79 -17.21 23.42 -15.84 22.98 C -12.82 22.03 -10.61 19.86 -8.23 17.91 C -5.06 15.32 -2.51 12.21 -0.65 8.59 C 0.32 6.69 1 4.62 1.66 2.58 C 2.13 1.12 1.54 0.27 0 0 M 103.96 -0.37 C 101.81 0 99.63 0.28 97.45 0.36 C 94.19 0.48 90.91 0.38 87.64 0.4 C 83.57 0.43 79.5 0.5 75.43 0.52 C 72.79 0.54 70.16 0.52 67.52 0.51 C 63.53 0.5 59.54 0.49 55.55 0.47 C 52.92 0.47 50.29 0.44 47.66 0.45 C 44.35 0.47 41.04 0.55 37.73 0.54 C 34.66 0.53 31.59 0.42 28.53 0.39 C 25.05 0.36 21.58 0.38 18.11 0.35 C 15.47 0.32 12.84 0.21 10.2 0.2 C 8.39 0.19 7.57 0.72 7.25 2.06 C 6.17 6.55 4.57 10.75 1.89 14.63 C -1.32 19.28 -5.42 22.89 -10.04 25.9 C -14.07 28.54 -18.75 29.64 -23.47 30.4 C -28.43 31.2 -33.36 32.34 -38.44 32.05 C -41.07 31.89 -43.72 31.96 -46.31 31.58 C -48.54 31.26 -50.76 30.61 -52.87 29.8 C -55.39 28.82 -57.8 27.56 -60.22 26.34 C -64.31 24.28 -68.03 21.67 -71.23 18.39 C -74.83 14.69 -78.07 10.7 -80.91 6.38 C -83.15 2.98 -84.33 -0.7 -84.29 -4.77 C -84.27 -6.49 -84.94 -7.26 -86.67 -7.45 C -88.69 -7.69 -90.72 -7.85 -92.73 -8.18 C -96.63 -8.8 -100.51 -9.5 -104.39 -10.19 C -108.44 -10.91 -112.49 -11.61 -116.52 -12.41 C -119.61 -13.03 -122.67 -13.79 -125.75 -14.47 C -130.15 -15.43 -134.56 -16.34 -138.95 -17.34 C -141.91 -18.01 -144.86 -18.72 -147.77 -19.55 C -149.51 -20.05 -151.46 -20.11 -152.81 -21.56 C -153.12 -21.89 -153.2 -22.43 -153.39 -22.88 C -152.95 -22.94 -152.49 -23.12 -152.07 -23.03 C -146.79 -21.95 -141.49 -20.97 -136.25 -19.7 C -122.91 -16.45 -109.33 -14.71 -95.73 -13.05 C -86.85 -11.97 -77.95 -11.03 -69.05 -10.1 C -59.63 -9.11 -50.22 -8.03 -40.79 -7.3 C -33.23 -6.72 -25.63 -6.57 -18.05 -6.29 C -13.98 -6.14 -9.91 -6.08 -5.84 -6.03 C 1.18 -5.95 8.2 -5.92 15.22 -5.85 C 18.85 -5.81 22.48 -5.72 26.1 -5.67 C 28.94 -5.63 31.77 -5.61 34.6 -5.58 C 37.91 -5.54 41.21 -5.46 44.52 -5.46 C 47.63 -5.46 50.73 -5.6 53.84 -5.59 C 56.95 -5.57 60.05 -5.45 63.15 -5.38 C 63.63 -5.37 64.11 -5.47 64.59 -5.48 C 65.7 -5.49 66.82 -5.48 67.93 -5.48 C 68.89 -5.47 69.84 -5.44 70.8 -5.46 C 73.95 -5.5 77.09 -5.6 80.24 -5.6 C 83.3 -5.6 86.37 -5.42 89.43 -5.45 C 92.74 -5.49 96.05 -5.68 100.07 -5.83 C 100.83 -5.7 102.3 -5.51 103.73 -5.19 C 104.77 -4.95 105.75 -3.54 105.75 -2.48 C 105.74 -1.28 104.97 -0.54 103.96 -0.37" style="fill-opacity: 1; fill: rgb(255, 255, 255);"/>
        </g>
      </g>
      <g style="clip-path: url(#clippath0);">
        <g transform="translate(112.0636 129.4791)">
          <path d="M 0 0 L -0.7 -0.44 L -2.08 -1.29 L -5.31 -3.24 C -5.32 -3.24 -14.17 -7.43 -14.2 -7.43 C -13.29 -6.79 -4.2 -1 -4.2 -1 L -1.04 0.64 C -0.95 0.69 -0.85 0.72 -0.76 0.77 C 0.81 1.58 1.84 1.59 0 0 M 5.6 5.47 C 4.91 6.47 3.77 6.33 2.86 5.99 C 1.37 5.44 -0.09 4.76 -1.46 3.94 C -4.88 1.9 -8.31 -0.15 -11.61 -2.39 C -15.43 -4.99 -19.3 -7.57 -22.46 -11.01 C -23.52 -12.16 -23.96 -12.48 -25.09 -13.55 C -26.06 -14.64 -27.06 -15.56 -27.18 -15.47 C -26.68 -14.48 -25.2 -12.01 -24.71 -11.01 C -23.99 -9.51 -23.05 -8.06 -22.61 -6.48 C -21.92 -4.01 -23.26 -2.73 -25.67 -3.56 C -27.13 -4.06 -28.51 -5 -29.73 -5.99 C -32.27 -8.04 -35.43 -11.04 -35.43 -11.04 C -35.43 -11.04 -36.62 -12.16 -36.92 -12.38 C -37.27 -12.81 -40.07 -15.66 -40.07 -15.66 C -40.07 -15.66 -38.37 -12.29 -37.68 -10.99 C -34.98 -6.62 -32.42 -2.92 -29.68 1.44 C -28.34 3.56 -26.91 5.63 -25.6 7.77 C -25.25 8.34 -24.74 9.22 -25.64 9.63 C -25.99 9.79 -26.87 9.26 -27.25 8.81 C -28.45 7.38 -29.57 5.87 -30.66 4.35 C -36.32 -3.59 -41.51 -11.84 -46.12 -20.43 C -46.9 -21.88 -48.02 -23.4 -46.94 -25.27 C -46.83 -25.47 -47.29 -26.28 -47.64 -26.41 C -50 -27.32 -52.4 -28.07 -54.99 -27.79 C -56.82 -27.6 -57.87 -26.49 -57.93 -24.63 C -57.94 -24.08 -57.98 -23.49 -57.85 -22.96 C -57.07 -19.96 -56.36 -16.93 -55.42 -13.97 C -53.19 -6.91 -50.1 -0.2 -46.69 6.36 C -46.16 7.37 -45.08 8.34 -44.03 8.8 C -39.23 10.89 -34.35 12.76 -29.51 14.76 C -27.71 15.5 -26.62 15.99 -24.87 16.86 C -24.58 17 -23.49 17.46 -23.64 18.23 C -23.92 18.86 -25.39 18.38 -25.71 18.32 C -31.73 17.2 -36.68 16.03 -42.3 13.55 C -46.79 11.57 -51.29 9.58 -55.66 7.36 C -59.96 5.17 -64.12 2.72 -68.3 0.31 C -69.22 -0.22 -70.15 -0.71 -70.75 -1.78 C -70.92 -2.08 -71.05 -2.77 -70.85 -3.05 C -70.67 -3.31 -70.01 -3.4 -69.61 -3.33 C -69.08 -3.22 -68.59 -2.89 -68.09 -2.63 C -66.51 -1.8 -64.94 -0.91 -63.34 -0.11 C -60.27 1.44 -57.2 2.98 -54.09 4.44 C -53.43 4.75 -52.35 5.06 -51.91 4.75 C -51.07 4.16 -51.92 3.31 -52.23 2.64 C -53.63 -0.36 -55.17 -3.3 -56.47 -6.35 C -57.73 -9.32 -58.92 -12.34 -59.82 -15.44 C -60.77 -18.72 -61.83 -22.01 -61.56 -25.54 C -61.31 -28.72 -59.39 -30.98 -56.24 -31.37 C -51.63 -31.93 -47.56 -30.46 -43.89 -27.8 C -43.46 -27.49 -43.18 -26.62 -43.25 -26.07 C -43.37 -24.98 -43.19 -24.08 -42.48 -23.28 C -39.31 -19.75 -36.16 -16.2 -32.92 -12.73 C -31.75 -11.48 -30.37 -10.44 -29.05 -9.35 C -28.82 -9.16 -27.72 -8.42 -27.39 -8.62 C -27.03 -8.89 -27.56 -9.63 -27.85 -10.02 C -28.05 -10.29 -29.17 -11.94 -29.28 -12.1 C -32.87 -17.14 -35.5 -20.76 -39.04 -25.83 C -41.85 -29.86 -44.73 -33.85 -47.21 -38.07 C -48.71 -40.62 -49.58 -43.54 -50.57 -46.35 C -50.78 -46.94 -50.28 -47.77 -50.1 -48.49 C -49.58 -48.01 -48.92 -47.61 -48.54 -47.03 C -44.75 -41.21 -41.07 -35.32 -37.24 -29.53 C -34.77 -25.81 -32.14 -22.43 -29.53 -18.8 C -29.21 -18.36 -28.88 -17.88 -28.47 -17.51 C -28.47 -17.51 -27.41 -16.07 -27.58 -17.28 C -27.59 -17.35 -27.74 -19.19 -27.74 -19.27 C -27.64 -21.34 -26.89 -22.3 -24.81 -22.27 C -22.84 -22.23 -20.83 -21.93 -18.93 -21.42 C -16.86 -20.86 -14.86 -19.99 -12.89 -19.12 C -10.38 -18 -7.92 -16.77 -5.47 -15.52 C -5.06 -15.3 -4.36 -14.99 -4.52 -14.3 C -4.79 -13.34 -5.61 -13.51 -6.23 -13.77 C -6.36 -13.82 -8.1 -14.49 -8.25 -14.54 C -11.05 -15.44 -12.32 -15.93 -15.12 -16.84 C -17.47 -17.61 -19.81 -18.12 -22.18 -18.83 C -22.59 -18.96 -23.44 -18.81 -23.54 -18.57 C -23.71 -18.16 -23.61 -17.44 -23.33 -17.07 C -22.56 -16.05 -21.58 -15.2 -20.8 -14.19 C -19.58 -12.6 -17.93 -11.73 -16.09 -11.06 C -14.4 -10.45 -11.78 -9.61 -10.23 -8.72 C -5.96 -6.52 -4.91 -5.91 -0.91 -3.29 C 0.69 -2.24 4.09 1.03 5.4 2.46 C 6.16 3.3 6.3 4.47 5.6 5.47" style="fill-opacity: 1; fill: rgb(255, 255, 255);"/>
        </g>
      </g>
      <g style="clip-path: url(#clippath0);">
        <g transform="translate(158.4682 58.7283)">
          <path d="M 0 0 C 0.768 1.833 1.365 3.616 2.229 5.258 C 6.899 14.133 11.981 22.765 17.754 30.975 C 18.073 31.427 18.453 31.86 18.886 32.198 C 19.126 32.387 19.603 32.508 19.845 32.392 C 20.093 32.273 20.327 31.819 20.311 31.526 C 20.284 31.027 20.141 30.492 19.899 30.054 C 17.945 26.527 15.928 23.036 13.987 19.502 C 11.817 15.549 9.695 11.57 7.594 7.58 C 7.403 7.218 6.499 5.376 6.472 4.928 C 6.917 4.97 8.459 6.196 8.814 6.397 C 10.581 7.402 12.286 8.517 14.047 9.533 C 17.522 11.537 21.198 13.072 25.079 14.094 C 25.65 14.245 26.266 14.301 26.857 14.283 C 29.178 14.211 30.546 12.038 29.299 9.92 C 27.712 7.223 25.926 4.584 23.86 2.242 C 20.908 -1.105 17.722 -4.264 14.459 -7.313 C 9.883 -11.59 5.14 -15.689 0.474 -19.87 C -6.127 -25.783 -12.73 -31.694 -19.314 -37.625 C -20.975 -39.121 -22.547 -40.717 -24.208 -42.213 C -24.852 -42.792 -25.597 -43.288 -26.364 -43.691 C -26.725 -43.88 -27.477 -43.941 -27.645 -43.732 C -27.91 -43.405 -28.051 -42.672 -27.856 -42.336 C -27.219 -41.242 -26.538 -40.115 -25.64 -39.24 C -19.976 -33.725 -14.293 -28.227 -8.526 -22.819 C -4.595 -19.133 -0.49 -15.635 3.485 -11.997 C 9.05 -6.903 14.602 -1.794 20.082 3.39 C 21.816 5.03 23.339 6.901 24.875 8.736 C 25.218 9.147 25.207 9.853 25.359 10.423 C 24.72 10.434 23.98 10.661 23.459 10.418 C 20.713 9.134 17.981 7.807 15.321 6.352 C 11.527 4.277 8.029 1.763 4.841 -1.173 C 4.52 -1.468 4.17 -1.843 3.778 -1.929 C 2.93 -2.115 1.916 -2.437 1.218 -2.133 C 0.645 -1.884 -0.545 -1.549 0 0" style="fill-opacity: 1; fill: rgb(255, 255, 255);"/>
        </g>
      </g>
      <g style="clip-path: url(#clippath0);">
        <g transform="translate(166.4865 147.0253)">
          <path d="M 0 0 C -0.619 -1.343 -1.06 -2.546 -1.695 -3.637 C -5.99 -11.015 -10.231 -18.426 -14.678 -25.711 C -18.044 -31.226 -21.789 -36.508 -25.184 -42.006 C -28.662 -47.64 -31.901 -53.422 -35.283 -59.115 C -36.544 -61.239 -37.872 -63.327 -39.275 -65.358 C -39.556 -65.766 -39.936 -66.502 -40.855 -66.072 C -41.536 -66.038 -41.3 -64.884 -41.134 -64.433 C -40.325 -62.228 -39.524 -59.999 -38.46 -57.911 C -33.885 -48.938 -28.543 -40.423 -22.888 -32.095 C -20.378 -28.399 -17.973 -24.629 -15.588 -20.85 C -13.14 -16.973 -10.775 -13.044 -8.373 -9.138 C -8.289 -9.002 -8.137 -8.871 -8.129 -8.732 C -8.108 -8.335 -8.144 -7.934 -8.157 -7.535 C -8.511 -7.64 -8.96 -7.642 -9.205 -7.866 C -11.596 -10.043 -13.972 -12.238 -16.311 -14.471 C -17.463 -15.571 -18.571 -16.724 -19.62 -17.922 C -22.951 -20.792 -20.59 -19.806 -19.017 -19.559 C -18.318 -19.477 -17.855 -19.435 -17.88 -20.223 C -17.813 -20.792 -18.297 -21.123 -18.649 -21.341 C -19.629 -21.947 -20.638 -22.578 -21.722 -22.93 C -25.128 -24.036 -27.444 -26.451 -29.602 -29.123 C -31.884 -31.949 -34.224 -34.727 -36.541 -37.524 C -36.668 -37.677 -36.797 -37.88 -36.966 -37.935 C -37.348 -38.059 -37.755 -38.105 -38.152 -38.182 C -38.218 -37.779 -38.467 -37.283 -38.318 -36.988 C -37.815 -35.996 -37.23 -35.032 -36.57 -34.135 C -34.679 -31.564 -32.735 -29.033 -30.816 -26.483 C -30.601 -26.197 -29.923 -25.486 -29.857 -25.162 C -29.441 -23.115 -28.963 -23.014 -27.494 -21.742 C -25.601 -20.104 -23.334 -17.562 -21.555 -15.787 C -18.618 -12.856 -15.678 -9.926 -12.666 -7.073 C -9.683 -4.245 -6.611 -1.512 -3.576 1.26 C -2.888 1.888 -2.053 2.146 -1.279 1.61 C -0.75 1.243 -0.435 0.568 0 0" style="fill-opacity: 1; fill: rgb(255, 255, 255);"/>
        </g>
      </g>
      <g style="clip-path: url(#clippath0);">
        <g transform="translate(88.8413 39.487)">
          <path d="M 0 0 C -2.824 -0.146 -5.569 0.59 -7.52 3.131 C -8.055 3.828 -8.476 4.733 -8.612 5.595 C -9.154 9.037 -8.776 12.415 -7.78 15.764 C -6.362 20.529 -4.437 25.079 -2.099 29.446 C 1.227 35.659 5.249 41.408 9.771 46.814 C 14.874 52.915 20.704 58.225 27.214 62.77 C 28.903 63.949 30.789 64.876 32.665 65.743 C 34.312 66.505 35.714 65.943 36.067 64.502 C 36.189 64 36.037 63.29 35.734 62.876 C 35.538 62.608 34.839 62.723 34.372 62.633 C 33.497 62.463 32.469 62.503 31.782 62.042 C 29.304 60.377 26.787 58.715 24.565 56.737 C 17.714 50.637 11.645 43.82 6.494 36.207 C 2.679 30.569 -0.668 24.668 -3.074 18.293 C -4.169 15.393 -4.996 12.384 -5.173 9.228 C -5.382 5.492 -3.915 3.82 -0.163 3.658 C 2.973 3.522 5.788 4.611 8.606 5.769 C 10.742 6.647 12.894 7.489 15.067 8.271 C 15.421 8.399 16.658 9.258 16.928 8.314 C 17.198 7.369 16.16 7.082 15.869 6.81 C 11.849 3.037 6.148 -0.207 0 0" style="fill-opacity: 1; fill: rgb(255, 255, 255);"/>
        </g>
      </g>
      <g style="clip-path: url(#clippath0);">
        <g transform="translate(281.9049 214.8298)">
          <path d="M 0 0 C -1.337 -0.862 -2.593 -1.902 -4.027 -2.55 C -6.821 -3.811 -9.709 -4.865 -12.567 -5.983 C -16.684 -7.594 -20.821 -9.151 -24.924 -10.795 C -30.511 -13.034 -36.106 -15.255 -41.634 -17.631 C -46.178 -19.584 -50.655 -21.698 -55.114 -23.839 C -59.461 -25.926 -63.747 -28.139 -68.061 -30.295 C -68.347 -30.438 -68.638 -30.665 -68.932 -30.674 C -69.45 -30.691 -70.204 -30.751 -70.433 -30.459 C -70.719 -30.094 -70.826 -29.176 -70.569 -28.872 C -69.601 -27.732 -68.611 -26.469 -67.346 -25.748 C -62.331 -22.889 -57.266 -20.104 -52.109 -17.511 C -47.553 -15.22 -42.899 -13.103 -38.199 -11.124 C -33.317 -9.068 -28.351 -7.204 -23.376 -5.382 C -19.898 -4.109 -16.384 -2.896 -12.811 -1.936 C -9.33 -1.002 -5.897 0.352 -2.16 0.011 C -1.468 -0.052 -0.751 0.164 -0.046 0.251 Z" style="fill-opacity: 1; fill: rgb(255, 255, 255);"/>
        </g>
      </g>
      <g style="clip-path: url(#clippath0);">
        <g transform="translate(133.485 211.2652)">
          <path d="M 0 0 C -0.095 -0.95 -0.569 -1.432 -1.373 -1.141 C -2.14 -0.862 -2.968 -0.474 -3.508 0.109 C -5.892 2.682 -8.255 5.283 -10.486 7.988 C -13.15 11.219 -15.64 14.592 -18.264 17.857 C -21.138 21.432 -23.973 25.047 -27.016 28.474 C -31.305 33.306 -35.777 37.975 -40.151 42.731 C -40.661 43.284 -41.189 43.893 -41.453 44.575 C -41.651 45.087 -41.644 45.908 -41.348 46.312 C -41.098 46.652 -40.298 46.684 -39.745 46.672 C -39.394 46.664 -39 46.382 -38.71 46.125 C -35.903 43.639 -33.007 41.24 -30.346 38.604 C -26.693 34.987 -23.091 31.3 -19.714 27.428 C -16.675 23.945 -13.931 20.2 -11.127 16.517 C -8.59 13.184 -6.103 9.81 -3.682 6.392 C -2.443 4.644 -1.385 2.766 -0.274 0.93 C -0.095 0.635 -0.07 0.249 0 0" style="fill-opacity: 1; fill: rgb(255, 255, 255);"/>
        </g>
      </g>
      <g style="clip-path: url(#clippath0);">
        <g transform="translate(221.5736 138.3891)">
          <path d="M 0 0 C -2.22 -1.25 -8.76 -4.55 -11.01 -5.75 C -11.13 -5.57 -8.35 -3.28 -7.19 -2.58 C -5.86 -1.52 -4.48 -0.92 -2.93 -0.07 C -2.09 0.46 -1.41 0.71 -0.63 1.17 C 0.29 1.7 0.89 1.65 1.11 1.26 C 1.3 0.8 0.36 0.2 0 0 M 6.94 4.69 C 6.36 5.7 4.75 6.05 3.03 5.67 C -0.11 4.98 -2.82 3.38 -5.54 1.78 C -9.83 -0.74 -13.68 -3.86 -17.21 -7.33 C -19.14 -9.24 -20.88 -11.45 -22.25 -13.8 C -24.69 -17.99 -23.08 -20.47 -17.2 -20.4 C -14.87 -20.44 -11.68 -19.61 -8.69 -18.08 C -8.26 -17.85 -7.58 -17.34 -7.73 -16.73 C -7.86 -16.16 -8.71 -16.15 -9.18 -16.18 C -11.57 -16.34 -13.95 -16.62 -16.33 -16.84 C -17.04 -16.91 -17.77 -17.03 -18.47 -16.95 C -19.68 -16.81 -20.13 -15.76 -19.47 -14.75 C -19.16 -14.28 -18.78 -13.86 -18.46 -13.41 C -16.92 -11.2 -15.66 -10.64 -12.92 -9.34 C -12.29 -9.05 -11.15 -8.68 -10.65 -8.45 C -7.96 -7.23 -5.27 -6.24 -2.62 -4.95 C 0.48 -3.44 3.42 -1.67 5.86 0.81 C 7.12 2.09 7.53 3.66 6.94 4.69" style="fill-opacity: 1; fill: rgb(255, 255, 255);"/>
        </g>
      </g>
      <g style="clip-path: url(#clippath0);">
        <g transform="translate(170.717 136.6854)">
          <path d="M 0 0 C 0.471 -0.148 0.956 -0.225 1.366 -0.445 C 2.331 -0.962 2.424 -2.104 1.479 -2.653 C 0.777 -3.061 -0.098 -3.161 -0.866 -3.472 C -1.735 -3.823 -2.607 -4.199 -3.404 -4.685 C -3.711 -4.872 -4.06 -5.502 -3.955 -5.736 C -3.798 -6.087 -3.291 -6.397 -2.876 -6.501 C -0.867 -7.005 1.176 -7.379 3.177 -7.912 C 4.322 -8.216 5.452 -8.648 6.513 -9.176 C 8.432 -10.131 8.87 -12.748 7.215 -14.156 C 5.006 -16.037 2.755 -17.96 0.249 -19.383 C -6.583 -23.261 -13.568 -26.869 -20.471 -30.624 C -21.974 -31.442 -23.362 -32.473 -24.86 -33.303 C -25.308 -33.551 -26.231 -33.692 -26.44 -33.451 C -26.779 -33.062 -26.884 -32.275 -26.76 -31.731 C -26.628 -31.156 -26.182 -30.602 -25.753 -30.154 C -23.365 -27.661 -20.32 -26.126 -17.341 -24.508 C -10.507 -20.794 -3.657 -17.107 3.181 -13.398 C 3.489 -13.231 3.778 -12.986 4.005 -12.718 C 4.849 -11.721 4.593 -10.756 3.339 -10.467 C 0.891 -9.903 -1.589 -9.48 -4.029 -8.886 C -5.248 -8.59 -6.507 -8.212 -7.569 -7.574 C -8.923 -6.761 -9.034 -5.457 -8.1 -4.175 C -6.104 -1.434 -3.111 -0.649 0 0" style="fill-opacity: 1; fill: rgb(255, 255, 255);"/>
        </g>
      </g>
      <g style="clip-path: url(#clippath0);">
        <g transform="translate(230.7847 116.9479)">
          <path d="M 0 0 C -0.665 0.179 -1.569 0.272 -2.325 0.656 C -4.331 1.675 -5.004 3.741 -3.896 6.078 C -3.05 7.863 -1.842 9.478 -0.774 11.156 C -0.304 11.895 0.275 12.572 0.689 13.339 C 0.86 13.656 0.896 14.273 0.7 14.519 C 0.144 15.217 -0.304 15.834 0.159 16.773 C 0.668 17.809 1.498 18.336 2.6 18.462 C 4.311 18.657 5.703 19.521 6.904 20.647 C 8.241 21.901 9.416 23.325 10.723 24.614 C 13.421 27.275 16.148 29.908 18.892 32.523 C 19.523 33.125 20.242 33.647 20.97 34.132 C 21.39 34.413 21.907 34.698 22.383 34.703 C 22.878 34.707 23.544 34.506 23.819 34.15 C 24.047 33.855 24.002 33.057 23.752 32.74 C 23.043 31.842 22.18 31.064 21.355 30.262 C 18.639 27.618 15.912 24.986 13.194 22.344 C 12.995 22.151 12.819 21.929 12.657 21.702 C 11.943 20.703 12.125 20.196 13.292 19.921 C 13.486 19.875 13.702 19.886 13.878 19.806 C 14.283 19.621 14.669 19.396 15.063 19.187 C 14.748 18.831 14.487 18.393 14.104 18.141 C 13.718 17.887 13.221 17.748 12.755 17.679 C 9.49 17.196 6.953 15.603 5.093 12.864 C 3.549 10.591 1.891 8.395 0.376 6.103 C 0.051 5.612 -0.176 4.569 0.09 4.289 C 0.483 3.873 1.363 3.761 2.023 3.793 C 2.844 3.833 3.644 4.197 4.467 4.339 C 6.033 4.61 7.606 4.851 9.184 5.033 C 9.471 5.066 9.953 4.83 10.059 4.591 C 10.163 4.357 9.97 3.913 9.784 3.649 C 9.561 3.332 9.235 3.066 8.906 2.851 C 6.266 1.125 3.292 0.443 0 0" style="fill-opacity: 1; fill: rgb(255, 255, 255);"/>
        </g>
      </g>
      <g style="clip-path: url(#clippath0);">
        <g transform="translate(174.3196 216.6682)">
          <path d="M 0 0 C 0.386 1.516 0.782 3.186 1.238 4.839 C 2.785 10.46 4.223 16.116 5.953 21.681 C 7.47 26.557 9.26 31.352 11.052 36.137 C 12.21 39.231 13.554 42.259 14.884 45.286 C 15.603 46.925 16.465 48.501 17.271 50.102 C 17.396 50.35 17.515 50.642 17.724 50.797 C 18.081 51.063 18.508 51.236 18.905 51.448 C 18.996 51.012 19.259 50.527 19.15 50.148 C 18.05 46.315 16.928 42.488 15.737 38.682 C 13.7 32.168 11.509 25.701 9.57 19.159 C 7.744 12.996 6.167 6.759 4.458 0.561 C 4.28 -0.085 4.005 -0.718 3.679 -1.304 C 3.184 -2.195 2.413 -2.664 1.376 -2.313 C 0.373 -1.974 -0.001 -1.169 0 0" style="fill-opacity: 1; fill: rgb(255, 255, 255);"/>
        </g>
      </g>
      <g style="clip-path: url(#clippath0);">
        <g transform="translate(93.2218 177.2034)">
          <path d="M 0 0 C -0.923 0.306 -2.146 0.668 -3.338 1.113 C -10.741 3.878 -18.194 6.52 -25.515 9.488 C -30.721 11.597 -35.791 14.062 -40.831 16.55 C -43.54 17.887 -46.086 19.565 -48.641 21.19 C -49.188 21.538 -49.457 22.322 -49.854 22.906 C -49.221 22.898 -48.518 23.07 -47.964 22.855 C -43.95 21.302 -39.961 19.683 -35.974 18.06 C -31.835 16.375 -27.749 14.551 -23.566 12.983 C -15.716 10.041 -7.811 7.244 0.063 4.367 C 0.616 4.165 1.142 3.841 1.618 3.49 C 2.349 2.953 2.761 2.224 2.39 1.302 C 2.024 0.391 1.301 -0.042 0 0" style="fill-opacity: 1; fill: rgb(255, 255, 255);"/>
        </g>
      </g>
      <g style="clip-path: url(#clippath0);">
        <g transform="translate(122.2677 46.3421)">
          <path d="M 0 0 C -2.314 0.072 -4.105 2.219 -3.486 4.763 C -2.811 7.536 -1.91 10.306 -0.698 12.886 C 2.723 20.171 7.177 26.84 11.969 33.293 C 16.084 38.835 20.115 44.439 24.204 50 C 24.721 50.702 25.185 51.726 26.352 51.229 C 27.07 50.922 26.966 49.85 26.1 48.565 C 24.071 45.554 21.986 42.58 19.976 39.556 C 17.569 35.933 15.226 32.268 12.84 28.631 C 8.59 22.149 4.556 15.545 1.492 8.4 C 1.1 7.488 0.835 6.517 0.566 5.557 C 0.209 4.289 0.537 3.772 1.75 3.223 C 2.283 2.981 3.463 2.689 3.945 2.336 C 3.486 1.777 2.372 0.945 1.803 0.542 C 1.318 0.198 0.61 0.169 0 0" style="fill-opacity: 1; fill: rgb(255, 255, 255);"/>
        </g>
      </g>
      <g style="clip-path: url(#clippath0);">
        <g transform="translate(266.3695 144.6041)">
          <path d="M 0 0 C 0.16 0 0.32 0.011 0.479 -0.002 C 1.374 -0.073 2.224 -0.357 2.379 -1.33 C 2.548 -2.401 1.627 -2.734 0.828 -2.997 C -0.833 -3.543 -2.535 -3.97 -4.174 -4.57 C -4.981 -4.865 -5.721 -5.389 -6.422 -5.903 C -6.735 -6.132 -7.13 -6.687 -7.04 -6.924 C -6.907 -7.275 -6.407 -7.628 -6.007 -7.713 C -3.666 -8.214 -1.296 -8.581 1.038 -9.109 C 2.189 -9.37 3.345 -9.759 4.389 -10.301 C 6.416 -11.352 6.625 -13.675 4.969 -15.279 C 3.038 -17.151 0.692 -18.348 -1.729 -19.396 C -6.635 -21.521 -11.56 -23.604 -16.499 -25.65 C -17.444 -26.042 -18.482 -26.304 -19.497 -26.395 C -20.034 -26.443 -20.777 -26.128 -21.118 -25.719 C -21.326 -25.47 -21.122 -24.515 -20.798 -24.25 C -19.613 -23.283 -18.398 -22.248 -17.017 -21.642 C -11.353 -19.155 -5.62 -16.826 0.075 -14.411 C 0.84 -14.087 1.585 -13.668 2.252 -13.175 C 3.034 -12.595 2.9 -11.905 1.988 -11.578 C 1.542 -11.418 1.056 -11.36 0.583 -11.292 C -2.263 -10.885 -5.111 -10.49 -7.957 -10.085 C -8.272 -10.04 -8.587 -9.971 -8.893 -9.881 C -11.647 -9.066 -12.314 -6.699 -10.285 -4.68 C -7.45 -1.857 -3.792 -0.764 0 0" style="fill-opacity: 1; fill: rgb(255, 255, 255);"/>
        </g>
      </g>
      <g style="clip-path: url(#clippath0);">
        <g transform="translate(190.7954 131.8716)">
          <path d="M 0 0 C -1.557 0 -3.114 -0.011 -4.671 0.007 C -5.107 0.013 -5.543 0.1 -5.978 0.16 C -7.113 0.318 -7.944 0.933 -8.242 2.025 C -8.538 3.112 -7.82 3.953 -7.021 4.435 C -4.14 6.171 -1.147 7.726 2.326 7.776 C 3.066 7.787 3.813 7.301 4.557 7.044 C 3.95 6.555 3.411 5.915 2.723 5.607 C 1.129 4.893 -0.547 4.362 -2.165 3.699 C -2.467 3.575 -2.656 3.175 -2.897 2.903 C -2.596 2.679 -2.314 2.299 -1.99 2.26 C -0.645 2.095 0.718 2.084 2.063 1.922 C 3.958 1.694 5.877 1.522 7.723 1.07 C 10.14 0.478 10.741 -1.767 8.958 -3.551 C 7.5 -5.01 5.964 -6.466 4.233 -7.561 C -1.596 -11.249 -7.52 -14.787 -13.427 -18.349 C -14.027 -18.711 -14.749 -18.984 -15.437 -19.046 C -15.95 -19.092 -16.778 -18.872 -16.962 -18.513 C -17.188 -18.072 -17.099 -17.179 -16.774 -16.807 C -16.052 -15.98 -15.166 -15.245 -14.226 -14.669 C -10.825 -12.587 -7.356 -10.616 -3.948 -8.545 C -0.95 -6.723 2.033 -4.871 4.947 -2.922 C 5.597 -2.487 6.411 -1.51 6.313 -0.921 C 6.14 0.123 4.913 -0.176 4.072 -0.153 C 2.716 -0.116 1.357 -0.143 0 -0.143 C 0 -0.095 0 -0.048 0 0" style="fill-opacity: 1; fill: rgb(255, 255, 255);"/>
        </g>
      </g>
      <g style="clip-path: url(#clippath0);">
        <g transform="translate(136.3859 55.5317)">
          <path d="M 0 0 C 0.328 3.222 1.199 6.415 2.72 9.387 C 3.696 11.294 4.866 13.108 6.041 14.904 C 6.46 15.545 7.158 16.313 8.023 15.691 C 8.9 15.059 8.541 14.116 8.15 13.295 C 7.257 11.423 6.282 9.587 5.471 7.68 C 4.708 5.886 4.057 4.038 3.467 2.178 C 3.175 1.256 2.773 -0.05 3.838 -0.499 C 4.422 -0.745 5.682 -0.081 6.278 0.526 C 8.313 2.602 10.184 4.838 12.126 7.006 C 12.843 7.806 13.538 8.634 14.324 9.363 C 15.033 10.02 15.891 10.167 16.724 9.532 C 17.549 8.904 17.51 8.072 17.062 7.277 C 16.319 5.959 15.439 4.716 14.734 3.38 C 14.2 2.366 13.731 1.285 13.457 0.179 C 13.299 -0.462 13.497 -1.238 13.695 -1.906 C 13.906 -2.62 14.286 -3.455 13.525 -3.84 C 12.916 -4.146 11.995 -4.104 11.311 -3.895 C 10.839 -3.752 10.4 -3.118 10.181 -2.603 C 9.752 -1.595 9.131 -1.458 8.298 -1.984 C 7.493 -2.494 6.748 -3.097 5.958 -3.631 C 4.682 -4.495 3.366 -5.082 1.844 -4.164 C 0.645 -3.442 -0.043 -1.964 0 0" style="fill-opacity: 1; fill: rgb(255, 255, 255);"/>
        </g>
      </g>
      <g style="clip-path: url(#clippath0);">
        <g transform="translate(112.3515 191.0994)">
          <path d="M 0 0 C -0.573 0.238 -1.75 0.552 -2.736 1.171 C -5.501 2.908 -8.199 4.752 -10.894 6.597 C -11.475 6.996 -12.103 7.493 -12.396 8.097 C -12.691 8.706 -12.902 9.713 -12.593 10.163 C -12.242 10.673 -11.252 11.019 -10.579 10.963 C -9.709 10.891 -8.776 10.497 -8.047 9.988 C -4.95 7.82 -1.908 5.573 1.125 3.314 C 1.517 3.022 1.823 2.533 2.019 2.072 C 2.522 0.89 1.89 0.006 0 0" style="fill-opacity: 1; fill: rgb(255, 255, 255);"/>
        </g>
      </g>
      <g style="clip-path: url(#clippath0);">
        <g transform="translate(146.6476 229.5438)">
          <path d="M 0 0 C 0.103 0.831 0.093 1.41 0.266 1.927 C 0.389 2.293 0.724 2.789 1.027 2.838 C 1.332 2.888 1.87 2.538 2.036 2.221 C 2.645 1.057 3.319 -0.12 3.644 -1.376 C 4.282 -3.841 4.761 -6.352 5.18 -8.865 C 5.311 -9.655 5.232 -10.603 4.894 -11.308 C 4.618 -11.886 3.829 -12.52 3.238 -12.55 C 2.747 -12.575 2.064 -11.844 1.738 -11.289 C 1.369 -10.658 1.218 -9.86 1.119 -9.115 C 0.706 -5.995 0.347 -2.867 0 0" style="fill-opacity: 1; fill: rgb(255, 255, 255);"/>
        </g>
      </g>
      <g style="clip-path: url(#clippath0);">
        <g transform="translate(196.6492 203.5665)">
          <path d="M 0 0 C -1.392 -0.02 -1.937 0.736 -1.529 1.739 C -1.366 2.139 -1.168 2.577 -0.859 2.858 C 1.544 5.048 3.948 7.24 6.422 9.348 C 7.137 9.958 8.237 10.513 8.991 9.606 C 9.731 8.715 8.858 7.875 8.219 7.252 C 5.943 5.028 3.634 2.838 1.296 0.681 C 0.883 0.3 0.27 0.136 0 0" style="fill-opacity: 1; fill: rgb(255, 255, 255);"/>
        </g>
      </g>
    </g>
  </g>
</svg>