<?xml version="1.0" standalone="no"?>
<!DOCTYPE svg PUBLIC "-//W3C//DTD SVG 20010904//EN"
 "http://www.w3.org/TR/2001/REC-SVG-20010904/DTD/svg10.dtd">
<svg version="1.0" xmlns="http://www.w3.org/2000/svg"
 width="2072.000000pt" height="2072.000000pt" viewBox="0 0 2072.000000 2072.000000"
 preserveAspectRatio="xMidYMid meet">
<metadata>
Created by potrace 1.14, written by Peter Selinger 2001-2017
</metadata>
<g transform="translate(0.000000,2072.000000) scale(0.100000,-0.100000)"
fill="#000000" stroke="none">
<path d="M12311 15028 c-55 -28 -64 -42 -163 -238 -89 -178 -105 -211 -163
-345 -15 -33 -33 -74 -40 -91 -41 -89 -94 -219 -161 -389 -41 -104 -79 -199
-83 -210 -13 -30 -65 -169 -66 -175 -5 -26 -30 -90 -34 -90 -4 0 -7 -8 -8 -17
0 -10 -31 -99 -67 -198 -61 -166 -122 -339 -131 -375 -6 -21 -55 -172 -62
-190 -4 -8 -5 -19 -4 -24 1 -4 -2 -13 -7 -20 -7 -9 -76 -231 -87 -280 -1 -6
-5 -18 -8 -26 -4 -8 -11 -33 -16 -55 -5 -22 -17 -65 -26 -95 -9 -30 -18 -66
-21 -79 -3 -14 -7 -28 -10 -33 -3 -4 -7 -17 -10 -28 -4 -19 -8 -36 -18 -77 -3
-10 -15 -52 -26 -93 -12 -41 -23 -82 -26 -90 -3 -14 -37 -137 -70 -260 -8 -30
-17 -62 -18 -70 -2 -8 -6 -22 -9 -30 -3 -8 -9 -28 -13 -45 -9 -36 -4 -17 -54
-205 -22 -85 -43 -164 -45 -175 -2 -11 -4 -20 -5 -20 -1 0 -4 -11 -6 -25 -21
-109 9 -186 85 -218 69 -30 129 -19 173 32 21 24 75 134 83 168 2 13 18 70 35
128 16 58 41 150 55 205 14 55 28 106 30 113 2 7 5 14 5 17 1 3 6 19 11 37 6
18 12 44 15 58 3 14 8 34 11 45 4 11 8 25 9 30 5 22 45 172 55 201 5 17 12 40
14 50 5 21 39 145 80 294 15 52 31 109 35 125 4 17 20 70 35 119 15 49 28 94
29 100 2 10 13 45 68 226 6 19 14 44 19 55 8 21 37 123 40 140 0 6 5 18 11 28
5 10 11 26 13 35 2 9 13 49 26 87 13 39 24 72 24 75 2 12 98 310 114 355 16
43 63 190 66 205 0 3 18 59 39 125 22 66 39 126 39 133 0 6 5 12 10 12 6 0 8
3 4 6 -3 4 0 23 8 43 7 20 26 77 40 126 15 50 34 110 42 135 8 25 17 54 19 65
2 12 12 45 22 75 11 30 20 58 20 63 2 12 33 121 39 137 3 8 7 20 9 27 3 15 24
83 31 103 3 8 7 22 8 30 1 8 14 54 28 102 14 48 24 95 22 105 -2 10 -4 23 -4
29 -1 5 -7 17 -13 25 -12 14 -17 13 -47 -3z"/>
<path d="M4303 14224 c-43 -18 -56 -63 -41 -137 14 -65 49 -107 423 -505 117
-125 131 -140 230 -247 50 -54 106 -114 125 -135 43 -46 110 -119 215 -235 44
-49 89 -99 100 -111 49 -54 135 -152 161 -184 16 -19 31 -37 35 -40 3 -3 34
-39 68 -80 34 -41 79 -95 100 -120 21 -25 54 -66 73 -91 34 -44 62 -79 83
-103 6 -6 30 -36 55 -66 25 -30 48 -56 53 -58 4 -2 7 -10 7 -17 0 -8 6 -18 13
-22 6 -4 39 -42 72 -83 32 -41 63 -77 67 -78 5 -2 6 -8 2 -13 -3 -5 -1 -9 4
-9 5 0 22 -19 39 -42 17 -24 39 -53 49 -65 11 -12 84 -106 164 -209 137 -176
352 -446 375 -470 5 -6 28 -33 50 -60 22 -27 54 -64 71 -84 17 -19 47 -52 65
-74 19 -21 53 -58 75 -82 23 -24 40 -44 38 -44 -2 0 20 -25 49 -56 29 -31 71
-77 95 -103 124 -134 190 -179 278 -189 40 -4 44 -2 63 28 31 52 21 102 -40
206 -28 49 -59 97 -67 107 -8 9 -12 17 -8 17 4 0 2 6 -4 13 -21 25 -60 88 -60
97 0 6 -3 10 -8 10 -4 0 -16 17 -27 38 -11 20 -22 39 -25 42 -17 17 -90 121
-90 129 0 5 -3 11 -7 13 -5 2 -48 59 -97 128 -49 69 -95 130 -103 136 -7 6
-13 16 -13 21 0 5 -9 18 -20 28 -11 10 -20 24 -20 31 0 7 -4 14 -8 16 -5 2
-91 113 -193 248 -101 135 -187 247 -191 248 -4 2 -8 10 -8 17 0 8 -6 18 -13
22 -7 4 -24 24 -37 43 -14 19 -35 46 -47 60 -13 14 -23 28 -23 32 0 3 -6 13
-13 20 -7 7 -26 31 -42 53 -17 22 -35 46 -42 55 -204 257 -282 352 -417 504
-33 38 -69 78 -79 90 -176 203 -766 799 -958 966 -35 30 -75 66 -90 80 -15 14
-49 43 -75 65 -26 22 -67 59 -91 81 -24 23 -43 40 -43 37 0 -2 -17 12 -37 31
-61 55 -86 77 -111 94 -29 19 -108 22 -149 6z"/>
<path d="M8697 12182 c-15 -9 -31 -28 -34 -42 -3 -14 -10 -31 -16 -37 -5 -7
-7 -13 -3 -13 3 0 1 -12 -4 -26 -7 -16 -7 -23 0 -19 6 4 7 -2 2 -17 -9 -23 -8
-86 3 -165 7 -61 14 -121 20 -171 2 -23 7 -64 10 -90 4 -26 8 -58 9 -72 2 -14
6 -45 9 -70 4 -25 9 -72 13 -105 3 -33 8 -69 10 -80 2 -10 6 -37 9 -60 19
-131 94 -246 165 -250 51 -3 122 59 144 126 25 80 22 134 -29 404 -2 11 -7 38
-13 60 -5 22 -9 42 -10 45 0 3 -3 16 -6 30 -3 14 -8 37 -11 53 -10 53 -16 79
-31 135 -8 32 -16 62 -18 67 -1 6 -7 20 -14 31 -6 12 -9 23 -7 25 2 3 -22 53
-53 112 -68 128 -99 157 -145 129z"/>
<path d="M19367 10799 c-7 -4 -68 -6 -137 -5 -69 1 -165 -4 -215 -11 -117 -15
-124 -17 -260 -53 -44 -12 -87 -23 -95 -25 -8 -1 -37 -10 -65 -18 -27 -9 -72
-22 -100 -31 -27 -8 -61 -17 -75 -20 -14 -2 -44 -11 -68 -20 -24 -9 -46 -15
-50 -14 -4 1 -14 -1 -22 -5 -8 -3 -55 -17 -105 -32 -49 -14 -97 -29 -105 -32
-8 -4 -17 -7 -20 -8 -14 -3 -87 -27 -100 -33 -8 -3 -19 -7 -25 -7 -5 -1 -23
-7 -38 -13 -16 -7 -34 -12 -41 -12 -6 0 -16 -4 -21 -8 -6 -4 -28 -14 -50 -21
-56 -18 -314 -111 -350 -126 -16 -6 -70 -27 -120 -45 -49 -17 -99 -36 -110
-40 -57 -24 -212 -83 -225 -85 -13 -3 -142 -55 -215 -86 -11 -5 -67 -27 -125
-50 -58 -22 -119 -47 -137 -56 -17 -8 -37 -16 -45 -17 -7 -1 -40 -15 -73 -30
-33 -15 -114 -50 -180 -78 -66 -28 -160 -70 -210 -93 -49 -23 -107 -48 -127
-56 -21 -7 -38 -17 -38 -21 0 -4 -5 -8 -11 -8 -13 0 -41 -13 -199 -89 -63 -30
-117 -55 -120 -56 -17 -4 -286 -141 -288 -147 -2 -5 -11 -8 -21 -8 -9 0 -21
-4 -26 -9 -6 -4 -77 -43 -160 -86 -128 -67 -583 -313 -710 -385 -137 -77 -203
-116 -227 -132 -16 -11 -28 -17 -28 -14 0 3 -9 -2 -19 -11 -158 -146 -221
-223 -221 -271 0 -71 40 -103 121 -97 31 3 528 245 565 276 8 6 14 9 14 5 0
-8 142 65 151 77 3 5 10 8 15 8 5 -1 77 32 159 73 248 123 506 246 516 246 5
0 9 4 9 8 0 5 6 9 13 9 6 0 53 20 104 46 50 25 94 43 97 40 3 -4 6 -1 6 5 0 7
6 12 14 12 7 0 33 10 57 23 24 13 94 45 154 71 61 27 130 58 155 69 136 61
246 107 256 107 6 0 17 6 23 14 10 12 66 31 84 27 4 0 7 3 7 9 0 5 5 10 11 10
5 0 35 11 65 25 30 14 57 25 60 25 3 0 24 8 47 18 115 51 251 105 263 105 8 0
14 4 14 8 0 4 10 11 23 14 22 6 122 45 182 70 140 60 171 72 175 73 9 1 29 9
383 151 125 50 234 91 242 91 8 0 15 3 15 8 0 4 19 13 43 20 23 8 56 19 72 27
17 7 68 27 115 45 47 17 94 35 105 40 11 5 52 21 90 35 39 14 79 29 90 35 40
19 210 82 223 83 6 0 12 3 12 7 0 4 6 7 13 7 10 1 332 126 392 152 11 5 47 22
80 37 33 15 64 26 69 25 5 -1 17 6 28 16 11 10 22 17 24 15 9 -6 209 123 262
168 6 6 12 7 12 3 0 -10 20 19 20 29 0 8 -56 6 -73 -3z"/>
<path d="M13230 10688 c-31 -9 -87 -47 -130 -88 -9 -8 -40 -35 -70 -60 -29
-25 -65 -56 -81 -70 -72 -66 -167 -151 -189 -170 -14 -11 -69 -62 -123 -113
-129 -119 -163 -187 -129 -248 15 -27 61 -49 104 -49 33 0 107 40 151 82 19
18 90 85 158 148 67 63 193 185 280 270 133 131 159 161 164 193 14 75 -52
127 -135 105z"/>
<path d="M9117 10063 c-2 -1 -77 -5 -168 -8 -153 -6 -195 -8 -309 -18 -44 -4
-115 -15 -155 -24 -20 -4 -46 -9 -87 -17 -94 -18 -288 -83 -443 -148 -114 -48
-483 -228 -610 -298 -97 -53 -281 -166 -295 -180 -3 -3 -25 -19 -50 -35 -68
-45 -248 -191 -314 -254 -123 -118 -235 -237 -388 -411 -38 -44 -257 -317
-280 -350 -34 -48 -97 -135 -106 -145 -25 -31 -72 -105 -72 -114 0 -6 -4 -11
-9 -11 -18 0 -147 -237 -195 -357 -31 -81 -41 -113 -61 -196 -2 -10 -7 -28
-11 -40 -4 -12 -8 -38 -10 -57 -1 -19 -5 -46 -8 -60 -4 -14 -9 -81 -11 -150
-7 -148 -16 -188 -53 -225 -37 -38 -68 -48 -172 -60 -25 -3 -67 -8 -95 -11
-27 -4 -66 -8 -85 -9 -35 -3 -58 -6 -197 -26 -40 -6 -85 -12 -100 -14 -16 -2
-28 -4 -28 -5 0 -1 -15 -3 -32 -6 -18 -2 -48 -6 -65 -8 -18 -3 -34 -6 -35 -7
-2 -1 -12 -3 -23 -4 -11 -1 -21 -3 -22 -4 -2 -2 -15 -4 -29 -6 -57 -7 -196
-31 -321 -55 -52 -10 -75 -14 -148 -25 -14 -2 -36 -6 -50 -9 -13 -3 -40 -8
-60 -11 -20 -3 -47 -8 -60 -10 -14 -3 -38 -8 -55 -10 -16 -3 -68 -12 -115 -21
-47 -9 -96 -17 -110 -20 -14 -2 -38 -6 -55 -9 -16 -3 -41 -7 -55 -9 -14 -3
-25 -5 -25 -6 0 -1 -11 -4 -25 -5 -44 -7 -152 -25 -185 -31 -22 -5 -251 -49
-305 -59 -76 -14 -112 -21 -138 -29 -9 -3 -33 -7 -52 -10 -19 -3 -102 -21
-184 -41 -82 -19 -152 -32 -157 -29 -5 3 -9 0 -9 -5 0 -6 -3 -10 -7 -9 -5 1
-23 -2 -41 -6 -19 -4 -43 -9 -55 -11 -12 -2 -49 -10 -82 -18 -50 -13 -122 -29
-238 -52 -10 -2 -28 -7 -39 -11 -11 -3 -30 -7 -41 -9 -12 -2 -33 -6 -47 -9
-37 -9 -137 -29 -240 -50 -14 -3 -77 -17 -140 -32 -63 -14 -128 -28 -145 -31
-42 -7 -60 -11 -62 -13 -5 -4 -18 -7 -70 -15 -29 -4 -53 -11 -53 -16 0 -5 -6
-6 -14 -3 -8 3 -17 0 -21 -5 -3 -6 -10 -9 -15 -6 -5 3 -29 1 -52 -6 -45 -12
-66 -17 -108 -25 -14 -3 -52 -12 -85 -21 -33 -8 -69 -17 -80 -19 -35 -7 -57
-12 -170 -43 -60 -16 -113 -27 -117 -24 -5 2 -8 0 -8 -5 0 -8 -31 -17 -95 -27
-5 -1 -23 -7 -38 -13 -15 -7 -31 -11 -35 -10 -4 1 -41 -6 -82 -16 -159 -39
-262 -108 -287 -191 -6 -22 -10 -41 -8 -43 9 -9 118 -9 157 0 24 5 54 12 68
14 14 3 32 7 40 9 8 3 33 7 55 11 22 3 47 10 56 15 9 4 19 6 22 3 3 -3 23 -1
44 5 22 6 55 13 74 15 19 3 34 5 34 6 0 2 223 49 255 55 14 2 46 8 73 14 26 6
64 14 85 17 20 3 40 8 43 10 3 2 19 6 36 9 17 2 77 16 134 29 57 14 107 22
111 20 4 -3 8 -1 8 4 0 5 6 9 13 10 26 2 83 13 97 19 8 3 24 8 35 10 11 2 29
6 40 8 11 2 22 4 25 5 3 2 9 2 13 1 4 -1 16 3 25 8 9 5 33 12 52 15 19 3 44 8
55 10 30 7 168 37 186 41 9 2 33 6 54 9 20 4 41 8 45 11 3 2 21 7 38 10 18 3
46 7 62 10 17 3 63 12 103 21 39 8 86 17 102 19 17 2 63 11 103 20 41 8 78 13
83 9 5 -3 9 -1 9 3 0 5 10 9 23 10 12 0 36 3 52 6 50 10 257 45 305 52 25 3
61 10 80 14 19 4 47 7 63 7 15 -1 27 1 27 4 0 3 12 7 28 8 15 1 38 4 52 7 24
5 66 11 135 20 17 2 30 4 30 5 0 1 18 3 40 5 21 3 54 7 72 10 18 3 49 7 68 10
19 3 52 8 73 11 20 3 53 7 72 9 19 2 49 6 65 9 17 2 48 7 70 10 22 3 60 8 85
12 25 3 63 7 85 9 22 2 71 9 110 15 38 6 90 13 115 16 25 2 59 6 75 8 17 2 55
7 85 10 30 4 66 9 80 11 14 2 46 7 73 10 89 10 142 16 168 21 14 2 50 6 80 9
30 3 70 8 89 10 19 3 62 8 95 11 70 7 110 12 110 14 0 0 23 3 50 5 28 3 70 7
95 11 25 3 56 7 70 9 14 1 54 5 90 9 36 4 83 9 105 12 22 2 56 6 75 9 19 2 64
7 100 11 36 3 79 8 95 10 17 2 55 6 85 10 30 3 69 7 85 10 17 2 55 6 85 8 30
3 73 7 95 10 22 4 67 8 100 11 65 5 145 14 185 20 14 2 58 7 98 10 41 4 82 8
92 10 11 2 54 6 96 10 42 3 86 8 98 10 12 3 50 8 86 11 36 3 85 7 110 10 25 2
70 6 100 9 30 2 55 5 55 6 0 1 14 2 30 4 36 3 136 14 185 20 55 6 178 20 283
30 26 3 71 8 100 11 28 4 70 8 92 10 22 1 40 3 40 4 0 1 18 3 40 5 53 4 160
14 210 20 22 3 67 8 100 11 33 3 74 7 90 9 17 1 62 6 100 9 39 3 86 8 105 11
19 2 69 7 110 10 41 4 91 8 110 10 35 4 162 14 250 20 25 2 45 4 45 5 0 1 27
4 60 6 33 1 101 6 150 10 50 3 114 7 143 8 28 0 52 3 52 6 0 3 35 6 78 6 42 1
136 4 207 8 150 7 288 13 535 21 96 4 218 8 270 10 52 2 181 7 285 10 105 3
235 7 290 10 55 2 262 7 460 10 198 3 381 7 408 8 26 1 47 -2 47 -6 0 -5 5 -5
12 -1 16 10 158 11 158 1 0 -4 5 -5 12 -1 7 4 170 9 363 11 192 1 569 4 836 6
268 2 491 7 497 11 6 3 13 2 17 -4 4 -6 12 -7 23 -1 9 5 26 5 38 1 12 -5 25
-6 28 -3 5 6 161 9 941 17 231 3 420 6 420 6 0 6 967 4 993 -1 17 -4 35 -3 38
3 3 5 11 5 17 1 7 -5 140 -7 297 -5 157 2 598 3 980 3 382 -1 880 -1 1105 0
226 0 547 1 715 1 168 0 379 -3 470 -7 91 -3 194 -8 231 -9 36 -1 70 -6 77
-10 7 -4 12 -2 12 4 0 8 6 8 20 0 14 -8 20 -8 20 0 0 6 5 8 12 4 15 -9 88 -12
88 -3 0 4 8 6 18 5 9 -2 31 1 47 6 17 5 50 11 75 14 68 8 74 9 88 18 6 4 12 5
12 1 0 -3 17 2 37 10 34 14 128 104 118 113 -2 2 3 19 11 37 8 19 14 48 14 66
0 31 -25 94 -45 115 -23 24 -75 44 -141 54 -38 6 -80 13 -94 15 -38 6 -110 15
-165 21 -27 2 -75 7 -105 10 -275 27 -6995 17 -7040 -11 -5 -3 -11 -1 -15 5
-4 7 -12 7 -24 0 -10 -5 -20 -8 -22 -6 -2 2 -26 7 -54 11 -84 11 -157 68 -161
126 -1 9 -4 21 -7 26 -4 6 -9 28 -13 49 -3 22 -10 41 -15 42 -5 2 -7 7 -4 12
3 4 -7 45 -22 91 -14 46 -26 90 -26 97 0 6 -4 12 -9 12 -4 0 -8 11 -8 23 0 13
-3 27 -7 31 -5 4 -8 11 -8 14 -1 40 -185 433 -223 476 -10 10 -16 20 -15 22 2
2 -14 29 -35 60 -20 31 -42 64 -47 73 -24 39 -51 77 -65 93 -8 9 -19 23 -25
30 -16 21 -98 120 -125 151 -51 59 -228 234 -285 282 -32 28 -63 55 -69 60
-35 33 -197 155 -205 155 -5 0 -11 4 -13 8 -4 12 -203 144 -275 183 -69 38
-95 51 -145 73 -21 9 -53 22 -70 30 -75 33 -348 116 -428 130 -14 2 -36 7 -50
10 -39 9 -83 18 -110 21 -14 2 -36 6 -50 9 -22 5 -82 15 -120 21 -8 1 -33 5
-55 9 -170 32 -325 58 -410 70 -22 3 -56 8 -75 12 -19 3 -48 6 -65 8 -16 2
-50 6 -75 10 -25 3 -65 9 -90 12 -47 6 -488 13 -493 7z m278 -408 c77 -3 154
-8 170 -10 17 -3 62 -7 100 -10 39 -3 81 -7 95 -9 14 -2 52 -7 85 -11 33 -4
69 -9 80 -11 11 -3 38 -7 60 -10 22 -3 51 -8 65 -11 14 -3 39 -8 55 -9 31 -4
70 -11 70 -14 0 -1 16 -4 35 -6 19 -3 42 -7 50 -11 8 -3 22 -7 30 -8 16 -3 38
-8 104 -24 22 -5 44 -8 48 -5 4 3 8 1 8 -4 0 -5 6 -9 13 -10 14 -1 27 -4 127
-32 41 -11 83 -23 94 -25 10 -2 53 -15 95 -29 42 -13 92 -27 111 -31 19 -4 41
-12 48 -17 6 -6 12 -7 12 -4 0 4 6 4 13 -1 6 -4 20 -9 30 -10 28 -5 131 -50
187 -83 28 -16 53 -30 56 -30 5 0 65 -41 74 -50 3 -3 25 -21 50 -40 41 -32
209 -168 220 -180 3 -3 32 -27 65 -55 59 -48 279 -265 270 -265 -3 0 3 -8 13
-18 29 -29 155 -203 198 -272 58 -94 136 -251 173 -350 17 -47 36 -94 40 -105
25 -58 72 -219 73 -249 4 -100 -73 -145 -255 -151 -59 -2 -112 -7 -117 -10 -6
-3 -10 -1 -10 4 0 8 -33 9 -102 5 -57 -4 -132 -7 -168 -8 -36 -1 -71 -5 -77
-9 -6 -4 -14 -3 -18 3 -4 6 -11 8 -16 4 -6 -3 -52 -8 -102 -10 -51 -1 -137 -6
-192 -9 -55 -4 -156 -8 -225 -11 -69 -3 -172 -7 -230 -9 -58 -2 -159 -7 -225
-9 -66 -3 -183 -8 -260 -11 -180 -7 -331 -14 -475 -21 -63 -3 -137 -7 -165 -9
-83 -4 -247 -15 -295 -20 -25 -2 -74 -7 -110 -10 -36 -2 -92 -7 -125 -10 -33
-3 -82 -8 -110 -10 -112 -10 -172 -16 -215 -20 -25 -3 -74 -7 -110 -10 -36 -4
-76 -8 -90 -10 -14 -2 -65 -7 -115 -11 -49 -3 -108 -8 -130 -11 -22 -2 -58 -5
-80 -7 -45 -4 -169 -16 -230 -22 -22 -2 -69 -6 -105 -9 -36 -3 -81 -7 -100 -9
-19 -3 -60 -7 -90 -10 -30 -3 -77 -8 -105 -11 -27 -3 -75 -7 -105 -10 -30 -2
-68 -7 -85 -10 -16 -2 -57 -7 -90 -10 -33 -3 -82 -8 -110 -11 -27 -3 -68 -7
-90 -9 -22 -1 -40 -4 -40 -5 0 -1 -13 -3 -30 -4 -39 -4 -141 -16 -182 -22 -18
-2 -48 -6 -65 -8 -18 -3 -58 -8 -88 -11 -30 -3 -66 -8 -80 -10 -14 -2 -47 -6
-75 -10 -27 -3 -66 -7 -85 -10 -19 -2 -57 -7 -85 -11 -27 -3 -63 -8 -80 -10
-16 -2 -57 -6 -90 -9 -33 -4 -78 -8 -100 -10 -100 -11 -230 -12 -254 -2 -40
17 -87 65 -98 101 -16 52 -8 193 16 280 31 112 114 278 165 329 8 8 12 17 9
21 -4 3 -2 6 4 6 6 0 16 14 23 30 7 17 15 30 19 30 3 0 17 17 31 38 14 20 29
42 33 47 4 6 26 35 48 65 22 30 49 65 60 78 10 12 16 22 13 22 -3 0 11 17 30
38 20 20 36 43 36 50 0 6 3 12 8 12 4 0 27 27 52 60 24 33 48 60 52 60 5 0 8
5 8 11 0 6 6 17 13 24 6 7 30 35 52 61 22 27 48 56 58 66 9 10 17 20 17 23 0
33 431 437 501 469 10 5 19 13 19 18 0 4 5 8 10 8 6 0 35 18 65 40 30 22 57
40 61 40 3 0 18 9 33 19 26 19 299 159 351 181 14 5 32 14 40 19 8 5 44 23 80
39 61 28 94 43 247 112 34 16 64 26 67 23 3 -4 6 -1 6 5 0 7 5 12 11 12 5 0
31 10 57 21 99 45 130 57 136 52 3 -4 6 -1 6 5 0 10 131 45 215 57 23 3 51 7
62 9 23 5 112 16 173 22 19 2 85 6 145 9 61 4 111 8 112 8 3 3 177 -1 318 -8z"/>
<path d="M4942 9748 c-73 -35 -87 -95 -46 -197 17 -43 75 -101 153 -151 25
-16 51 -33 56 -37 53 -41 465 -313 474 -313 5 0 11 -3 13 -8 10 -24 191 -118
231 -120 4 0 18 -7 31 -15 31 -21 117 -14 160 12 58 36 64 88 22 170 -20 37
-84 101 -103 101 -7 0 -13 3 -13 8 0 4 -23 22 -50 41 -28 19 -50 38 -50 43 0
4 -7 8 -15 8 -8 0 -15 5 -15 10 0 6 -6 10 -14 10 -8 0 -16 4 -18 8 -1 4 -43
37 -93 72 -49 36 -92 67 -95 70 -22 24 -357 253 -402 274 -77 37 -166 43 -226
14z"/>
<path d="M392 9612 c-15 -5 31 -88 69 -122 41 -38 63 -55 64 -51 0 6 119 -71
127 -83 5 -7 8 -7 8 -1 0 7 3 7 8 0 4 -5 18 -16 32 -24 14 -8 71 -43 128 -78
57 -35 106 -63 108 -63 3 0 39 -20 82 -44 42 -24 88 -47 102 -51 14 -4 27 -11
30 -14 3 -4 48 -27 100 -52 52 -24 97 -47 98 -51 2 -5 8 -8 14 -8 6 0 63 -25
127 -56 64 -31 141 -67 171 -81 30 -14 62 -29 70 -34 8 -5 26 -14 40 -20 14
-5 45 -19 70 -30 122 -56 158 -72 245 -109 27 -12 66 -28 85 -37 46 -20 72
-31 215 -88 66 -26 134 -53 150 -60 17 -7 41 -16 55 -20 14 -4 43 -16 65 -26
44 -20 615 -234 795 -299 63 -23 124 -45 135 -50 18 -7 52 -21 65 -25 3 -1 18
-7 33 -13 16 -7 32 -12 36 -12 7 0 79 -27 136 -51 27 -11 202 -75 290 -106 39
-13 77 -27 85 -30 8 -3 20 -7 25 -8 6 -1 13 -3 18 -5 4 -1 10 -3 15 -4 4 -2
25 -7 47 -14 120 -34 229 42 229 158 0 28 -33 78 -71 107 -39 30 -145 86 -172
90 -8 1 -24 6 -36 11 -20 9 -101 40 -165 62 -19 7 -44 16 -55 20 -11 5 -33 13
-50 18 -16 6 -61 22 -100 37 -114 43 -149 56 -165 60 -15 4 -205 73 -455 165
-71 26 -149 54 -172 61 -24 6 -43 15 -43 18 0 4 -9 7 -19 8 -10 1 -66 20 -122
41 -147 57 -402 153 -414 156 -24 6 -62 19 -90 31 -49 22 -161 65 -168 65 -4
0 -30 11 -59 24 -29 13 -80 35 -113 47 -33 13 -61 27 -63 32 -2 4 -10 7 -17 7
-12 0 -59 19 -270 108 -22 9 -42 19 -45 22 -3 3 -12 6 -20 8 -8 1 -24 6 -35
11 -77 33 -154 65 -245 101 -58 23 -124 51 -147 61 -23 11 -45 19 -48 19 -4 0
-23 7 -43 16 -21 9 -48 21 -62 26 -14 6 -33 15 -44 20 -10 5 -26 11 -35 13
-15 4 -121 45 -166 65 -11 5 -45 19 -75 30 -30 12 -66 27 -80 32 -14 6 -34 14
-45 18 -11 5 -45 18 -75 30 -50 21 -155 33 -188 22z"/>
</g>
</svg>
